<svg xmlns="http://www.w3.org/2000/svg" viewBox="0 0 109 124"><defs><style>.cls-e,.cls-f{fill:none;stroke-linecap:round;stroke-miterlimit:10;stroke-width:2px;}.cls-e{stroke:#673ab7;}.cls-f{stroke:#323233;}</style></defs><title>Sovereignty</title><g id="Layer_2" data-name="Layer 2"><g id="Features"><circle class="cls-e" cx="55" cy="62" r="5"></circle><circle class="cls-f" cx="6" cy="33" r="5"></circle><circle class="cls-f" cx="6" cy="91" r="5"></circle><circle class="cls-f" cx="55" cy="118" r="5"></circle><circle class="cls-f" cx="103" cy="90" r="5"></circle><circle class="cls-f" cx="103" cy="33" r="5"></circle><circle class="cls-f" cx="55" cy="6" r="5"></circle><line class="cls-f" x1="15.67" y1="39.67" x2="43.71" y2="55.85"></line><line class="cls-f" x1="93.63" y1="39.67" x2="65.59" y2="55.85"></line><line class="cls-f" x1="15.67" y1="84.88" x2="43.71" y2="68.69"></line><line class="cls-f" x1="93.63" y1="84.88" x2="65.59" y2="68.69"></line><line class="cls-f" x1="55" y1="48" x2="55" y2="20"></line><line class="cls-f" x1="103" y1="78" x2="103" y2="46"></line><line class="cls-f" x1="6" y1="78" x2="6" y2="46"></line><line class="cls-f" x1="55" y1="105" x2="55" y2="76"></line><line class="cls-f" x1="16.3" y1="27.6" x2="43.8" y2="11.73"></line><line class="cls-f" x1="65.07" y1="11.73" x2="92.56" y2="27.6"></line><line class="cls-f" x1="16.3" y1="97.64" x2="43.8" y2="113.52"></line><line class="cls-f" x1="65.07" y1="113.52" x2="92.56" y2="97.64"></line></g></g></svg>