<svg xmlns="http://www.w3.org/2000/svg" viewBox="0 0 128 103.82"><defs><style>.cls-k,.cls-l{fill:none;stroke-linecap:round;stroke-miterlimit:10;stroke-width:2px;}.cls-k{stroke:#323233;}.cls-l{stroke:#673ab7;}</style></defs><title>scalability</title><g id="Layer_2" data-name="Layer 2"><g id="Features"><rect class="cls-k" x="34" y="27.82" width="60" height="60" rx="5.09" ry="5.09"></rect><path class="cls-k" d="M86,28.82V22.35A21.35,21.35,0,0,0,64.65,1h-.3A21.35,21.35,0,0,0,43,22.35v6.47"></path><polygon class="cls-l" points="74.55 52.33 74.53 64.04 64.39 69.88 54.26 64.01 54.28 52.3 64.42 46.47 74.55 52.33"></polygon><polyline class="cls-k" points="100 49.82 111 49.82 111 41.82 121 41.82"></polyline><polyline class="cls-k" points="122 67.82 111 67.82 111 59.82 101 59.82"></polyline><circle class="cls-k" cx="124" cy="41.82" r="3"></circle><circle class="cls-k" cx="124" cy="67.82" r="3"></circle><circle class="cls-k" cx="114" cy="99.82" r="3"></circle><polyline class="cls-k" points="28 49.82 17 49.82 17 41.82 7 41.82"></polyline><polyline class="cls-k" points="7 67.82 18 67.82 18 59.82 28 59.82"></polyline><circle class="cls-k" cx="4" cy="41.82" r="3"></circle><circle class="cls-k" cx="4" cy="67.82" r="3"></circle><circle class="cls-k" cx="14" cy="99.82" r="3"></circle><line class="cls-k" x1="17" y1="99.82" x2="111" y2="99.82"></line><line class="cls-k" x1="64" y1="92.82" x2="64" y2="99.82"></line></g></g></svg>