<svg xmlns="http://www.w3.org/2000/svg" viewBox="0 0 102 106.66"><defs><style>.cls-o,.cls-p{fill:none;stroke-linecap:round;stroke-miterlimit:10;stroke-width:2px;}.cls-o{stroke:#673ab7;}.cls-p{stroke:#323233;}</style></defs><title>devx</title><g id="Layer_2" data-name="Layer 2"><g id="Features"><polyline class="cls-o" points="40.35 78.36 47.17 85.18 64.4 67.95"></polyline><circle class="cls-p" cx="51.5" cy="8.5" r="7.5"></circle><path class="cls-p" d="M70,41V25.82a6.76,6.76,0,0,0-4.73-6.45l-5.75-1.8-7,7.46"></path><path class="cls-p" d="M33,43V25.82a6.76,6.76,0,0,1,4.73-6.45l5.75-1.8L52,29.1"></path><circle class="cls-p" cx="16.5" cy="17.5" r="6.5"></circle><polyline class="cls-p" points="27.16 26.28 23.57 25.15 17.79 31.31"></polyline><path class="cls-p" d="M1,63V32a5.58,5.58,0,0,1,3.9-5.32l4.75-1.49,7,9.52"></path><line class="cls-p" x1="8" y1="36" x2="8" y2="89"></line><line class="cls-p" x1="26" y1="36" x2="26" y2="55"></line><circle class="cls-p" cx="85.5" cy="17.5" r="6.5"></circle><polyline class="cls-p" points="75.08 26.28 78.67 25.15 84.44 31.31"></polyline><path class="cls-p" d="M101,63V32a5.58,5.58,0,0,0-3.9-5.32l-4.75-1.49-7,9.52"></path><line class="cls-p" x1="94" y1="36" x2="94" y2="89"></line><line class="cls-p" x1="76" y1="36" x2="76" y2="55"></line><polygon class="cls-o" points="26 62.21 26 91.07 51 105.51 76 91.07 76 62.21 51 47.77 26 62.21"></polygon></g></g></svg>